<svg width="166" height="58" viewBox="0 0 229 32" fill="none" xmlns="http://www.w3.org/2000/svg">
<path d="M18.104 7.768C18.104 9.06933 17.8053 10.264 17.208 11.352C16.6107 12.4187 15.6933 13.2827 14.456 13.944C13.2187 14.6053 11.6827 14.936 9.848 14.936H6.456V23H0.984V0.535999H9.848C11.64 0.535999 13.1547 0.845332 14.392 1.464C15.6293 2.08267 16.5573 2.936 17.176 4.024C17.7947 5.112 18.104 6.36 18.104 7.768ZM9.432 10.584C10.4773 10.584 11.256 10.3387 11.768 9.848C12.28 9.35733 12.536 8.664 12.536 7.768C12.536 6.872 12.28 6.17867 11.768 5.688C11.256 5.19733 10.4773 4.952 9.432 4.952H6.456V10.584H9.432ZM19.8648 14.04C19.8648 12.2053 20.2061 10.5947 20.8888 9.208C21.5928 7.82133 22.5421 6.75467 23.7368 6.008C24.9314 5.26133 26.2648 4.888 27.7368 4.888C28.9954 4.888 30.0941 5.144 31.0328 5.656C31.9928 6.168 32.7288 6.84 33.2408 7.672V5.144H38.7128V23H33.2408V20.472C32.7074 21.304 31.9608 21.976 31.0008 22.488C30.0621 23 28.9634 23.256 27.7048 23.256C26.2541 23.256 24.9314 22.8827 23.7368 22.136C22.5421 21.368 21.5928 20.2907 20.8888 18.904C20.2061 17.496 19.8648 15.8747 19.8648 14.04ZM33.2408 14.072C33.2408 12.7067 32.8568 11.6293 32.0888 10.84C31.3421 10.0507 30.4248 9.656 29.3368 9.656C28.2488 9.656 27.3208 10.0507 26.5528 10.84C25.8061 11.608 25.4328 12.6747 25.4328 14.04C25.4328 15.4053 25.8061 16.4933 26.5528 17.304C27.3208 18.0933 28.2488 18.488 29.3368 18.488C30.4248 18.488 31.3421 18.0933 32.0888 17.304C32.8568 16.5147 33.2408 15.4373 33.2408 14.072ZM53.5515 4.952C55.6422 4.952 57.3062 5.63467 58.5435 7C59.8022 8.344 60.4315 10.2 60.4315 12.568V23H54.9915V13.304C54.9915 12.1093 54.6822 11.1813 54.0635 10.52C53.4448 9.85867 52.6128 9.528 51.5675 9.528C50.5222 9.528 49.6902 9.85867 49.0715 10.52C48.4528 11.1813 48.1435 12.1093 48.1435 13.304V23H42.6715V5.144H48.1435V7.512C48.6982 6.72267 49.4448 6.104 50.3835 5.656C51.3222 5.18667 52.3782 4.952 53.5515 4.952ZM71.018 4.888C72.2767 4.888 73.3753 5.144 74.314 5.656C75.274 6.168 76.01 6.84 76.522 7.672V5.144H81.994V22.968C81.994 24.6107 81.6633 26.0933 81.002 27.416C80.362 28.76 79.37 29.8267 78.026 30.616C76.7033 31.4053 75.05 31.8 73.066 31.8C70.4207 31.8 68.2767 31.1707 66.634 29.912C64.9913 28.6747 64.0527 26.9893 63.818 24.856H69.226C69.3967 25.5387 69.802 26.072 70.442 26.456C71.082 26.8613 71.8713 27.064 72.81 27.064C73.9407 27.064 74.8367 26.7333 75.498 26.072C76.1807 25.432 76.522 24.3973 76.522 22.968V20.44C75.9887 21.272 75.2527 21.9547 74.314 22.488C73.3753 23 72.2767 23.256 71.018 23.256C69.546 23.256 68.2127 22.8827 67.018 22.136C65.8233 21.368 64.874 20.2907 64.17 18.904C63.4873 17.496 63.146 15.8747 63.146 14.04C63.146 12.2053 63.4873 10.5947 64.17 9.208C64.874 7.82133 65.8233 6.75467 67.018 6.008C68.2127 5.26133 69.546 4.888 71.018 4.888ZM76.522 14.072C76.522 12.7067 76.138 11.6293 75.37 10.84C74.6233 10.0507 73.706 9.656 72.618 9.656C71.53 9.656 70.602 10.0507 69.834 10.84C69.0873 11.608 68.714 12.6747 68.714 14.04C68.714 15.4053 69.0873 16.4933 69.834 17.304C70.602 18.0933 71.53 18.488 72.618 18.488C73.706 18.488 74.6233 18.0933 75.37 17.304C76.138 16.5147 76.522 15.4373 76.522 14.072ZM92.7368 4.888C93.9954 4.888 95.0941 5.144 96.0328 5.656C96.9928 6.168 97.7288 6.84 98.2408 7.672V5.144H103.713V22.968C103.713 24.6107 103.382 26.0933 102.721 27.416C102.081 28.76 101.089 29.8267 99.7448 30.616C98.4221 31.4053 96.7688 31.8 94.7848 31.8C92.1394 31.8 89.9954 31.1707 88.3528 29.912C86.7101 28.6747 85.7714 26.9893 85.5368 24.856H90.9448C91.1154 25.5387 91.5208 26.072 92.1608 26.456C92.8008 26.8613 93.5901 27.064 94.5288 27.064C95.6594 27.064 96.5554 26.7333 97.2168 26.072C97.8994 25.432 98.2408 24.3973 98.2408 22.968V20.44C97.7074 21.272 96.9714 21.9547 96.0328 22.488C95.0941 23 93.9954 23.256 92.7368 23.256C91.2648 23.256 89.9314 22.8827 88.7368 22.136C87.5421 21.368 86.5928 20.2907 85.8888 18.904C85.2061 17.496 84.8648 15.8747 84.8648 14.04C84.8648 12.2053 85.2061 10.5947 85.8888 9.208C86.5928 7.82133 87.5421 6.75467 88.7368 6.008C89.9314 5.26133 91.2648 4.888 92.7368 4.888ZM98.2408 14.072C98.2408 12.7067 97.8568 11.6293 97.0888 10.84C96.3421 10.0507 95.4248 9.656 94.3368 9.656C93.2488 9.656 92.3208 10.0507 91.5528 10.84C90.8061 11.608 90.4328 12.6747 90.4328 14.04C90.4328 15.4053 90.8061 16.4933 91.5528 17.304C92.3208 18.0933 93.2488 18.488 94.3368 18.488C95.4248 18.488 96.3421 18.0933 97.0888 17.304C97.8568 16.5147 98.2408 15.4373 98.2408 14.072ZM115.8 23.256C114.05 23.256 112.472 22.8827 111.064 22.136C109.677 21.3893 108.578 20.3227 107.768 18.936C106.978 17.5493 106.584 15.928 106.584 14.072C106.584 12.2373 106.989 10.6267 107.799 9.24C108.61 7.832 109.72 6.75467 111.128 6.008C112.536 5.26133 114.114 4.888 115.864 4.888C117.613 4.888 119.192 5.26133 120.6 6.008C122.008 6.75467 123.117 7.832 123.928 9.24C124.738 10.6267 125.144 12.2373 125.144 14.072C125.144 15.9067 124.728 17.528 123.896 18.936C123.085 20.3227 121.965 21.3893 120.536 22.136C119.128 22.8827 117.549 23.256 115.8 23.256ZM115.8 18.52C116.845 18.52 117.73 18.136 118.456 17.368C119.202 16.6 119.576 15.5013 119.576 14.072C119.576 12.6427 119.213 11.544 118.488 10.776C117.784 10.008 116.909 9.624 115.864 9.624C114.797 9.624 113.912 10.008 113.208 10.776C112.504 11.5227 112.152 12.6213 112.152 14.072C112.152 15.5013 112.493 16.6 113.176 17.368C113.88 18.136 114.754 18.52 115.8 18.52ZM138.927 4.952C141.017 4.952 142.681 5.63467 143.919 7C145.177 8.344 145.807 10.2 145.807 12.568V23H140.367V13.304C140.367 12.1093 140.057 11.1813 139.439 10.52C138.82 9.85867 137.988 9.528 136.943 9.528C135.897 9.528 135.065 9.85867 134.447 10.52C133.828 11.1813 133.519 12.1093 133.519 13.304V23H128.047V5.144H133.519V7.512C134.073 6.72267 134.82 6.104 135.759 5.656C136.697 5.18667 137.753 4.952 138.927 4.952ZM172.55 0.535999V4.92H166.598V23H161.126V4.92H155.174V0.535999H172.55ZM192.929 5.144V23H187.457V20.568C186.902 21.3573 186.145 21.9973 185.185 22.488C184.246 22.9573 183.201 23.192 182.049 23.192C180.683 23.192 179.478 22.8933 178.433 22.296C177.387 21.6773 176.577 20.792 176.001 19.64C175.425 18.488 175.137 17.1333 175.137 15.576V5.144H180.577V14.84C180.577 16.0347 180.886 16.9627 181.505 17.624C182.123 18.2853 182.955 18.616 184.001 18.616C185.067 18.616 185.91 18.2853 186.529 17.624C187.147 16.9627 187.457 16.0347 187.457 14.84V5.144H192.929ZM202.331 8.12C202.971 7.13867 203.771 6.37067 204.731 5.816C205.691 5.24 206.758 4.952 207.931 4.952V10.744H206.427C205.062 10.744 204.038 11.0427 203.355 11.64C202.672 12.216 202.331 13.24 202.331 14.712V23H196.859V5.144H202.331V8.12ZM228.179 5.144V23H222.707V20.568C222.152 21.3573 221.395 21.9973 220.435 22.488C219.496 22.9573 218.451 23.192 217.299 23.192C215.933 23.192 214.728 22.8933 213.683 22.296C212.637 21.6773 211.827 20.792 211.251 19.64C210.675 18.488 210.387 17.1333 210.387 15.576V5.144H215.827V14.84C215.827 16.0347 216.136 16.9627 216.755 17.624C217.373 18.2853 218.205 18.616 219.251 18.616C220.317 18.616 221.16 18.2853 221.779 17.624C222.397 16.9627 222.707 16.0347 222.707 14.84V5.144H228.179Z" fill="white"/>
</svg>
